<svg xmlns="http://www.w3.org/2000/svg" width="128" height="128" viewBox="0 0 2000 1976"><defs><linearGradient id="a" gradientUnits="userSpaceOnUse" x1="1370.61" y1="2085" x2="617.551" y2="-109.676"><stop class="stop0" offset="0" stop-color="#2589D5"/><stop class="stop1" offset="1" stop-color="#5BB9F5"/></linearGradient></defs><path fill="url(#a)" d="M1694.55 10.001c21.15.815 39.63 2.334 60.28 7.858 2.47.902 4.35 1.255 6.26 2.873 19.61 11.592 50.34 15.831 70.29 26.61 46.5 25.119 82.25 67.458 108.42 112.634 19.59 32.06 20.21 40.202 26.98 76.388l.55.859c2.38 8.722 3.81 15.214 5.44 24.113 3.09 16.634 3.74 41.226 4.25 58.245.77 23.193 1.29 46.393 1.56 69.597a4978.68 4978.68 0 01-1.66 263.513c-1.33 9.49-.02 22.922-2.83 30.191-1.79 8.07-1.97 17.224-2.42 25.548-5.37 16.555-13.09 43.388-22.19 56.97-7.58 11.309-22.58 24.771-32.65 36.806-22.11 26.415-44.73 53.373-67.31 79.361-15.06 17.33-36.1 35.346-51.75 52.26-14.63 15.809-28.14 29.47-43.02 44.725-.4.313-2.85 2.157-3.11 2.477-11.16 6.654-39.81 39.901-49.14 50.121a339.627 339.627 0 01-22.16 21.77c-9.95 9.21-43.1 45.46-51.24 50.24-10.6 15.8-29 26.83-40.75 39.59-17.38 18.87-32.08 34.96-51.14 52.48-2.97 4.01-6.65 7.3-10.28 10.71-15.24 14.32-29.6 29.52-44.52 44.16-4.16 4.08-22.29 15.66-23.15 19.97l1.12.26.34 4.38c-5.74.28-13.24.84-18.83.53-1.43-1.88-2.03-3.24-3.12-5.33-2.22-4.64-18.37-17.11-23.53-21.81-6.12-3.07-34.16-30.41-40.72-36.41l-61.75-55.55c-13.48-12.14-36.55-29.83-47.92-42.34-15-9.95-25.86-23.4-40.26-34.86-2.09-1.8-11.27-10.98-13.67-13.41-6.94-7.01-21.45-18.51-27.08-25.49-4.87-3.59-16.7-16.08-22.4-21.39-14.97-13.94-31.04-28.048-45.63-42.336-21.09-20.646-71.89-70.908-96.06-83.797-10.62-3.442-13.12-3.349-23.927-2.412l-1.273-.321c-3.005-.431-15.851-3.269-17.059-3.287-28.462-.416-70.171 38.88-61.282 68.307-4.637 22.248-2.715 35.766 9.584 54.606a97.435 97.435 0 0053.336 40.13c16.14 5.03 29.431 7.16 44.041 16.42 31.77 20.12 67.51 51.12 93.55 77.86 11.54 9.48 21.71 18.98 32.35 29.44 2 1.96 8.99 7.65 10.08 9.03 14.77 11.01 25.04 21.7 38.35 33.9 70.34 64.53 135.21 135.6 207 198.41 7.31 6.39 17.66 10.91 27.01 12.99-.38-.5-.78-.97-1.14-1.49-3.2-4.59-22.12-13.45-28.33-17.99-12.66-9.25-24.06-21.22-35.37-32.12l-102.97-100.36c-28.21-27.94-54.37-55.01-84.75-81.07l3.14-1.57c30.18 23.89 58.41 55.03 85.87 81.93 20.94 17.18 37.61 38.06 57.5 55.96 30.1 27.09 57.04 58.94 90.16 82.29 4.27 3.01 13.85 5.29 18.86 7.86 4.71 2.42 10.02 6.01 15.28 4.83 11.14-2.27 29.07-8.54 38.05-15.54 23.72-17.67 38.92-43.8 58.6-64.84 27.93-29.84 57.62-59.14 86.38-88.24 12.16-12.31 23.1-27.26 35.28-39.17 27.11-26.5 53.83-53.27 81.22-79.45 16.65-15.83 33.47-35.48 51.1-50.07 11.4-9.43 20.02-12.43 34.39-13.59 23.38 13.53 28.2 20.97 46.25 40.77 16.95 18.61 37.01 34.59 52.73 55.01 20.62 20.05 38.69 44.67 39.74 73.81.34 9.71 2.55 21.11 2.55 30.53 0 1.19-.03 2.39-.09 3.58 1.49 22.4 2.16 44.85 2.01 67.3-1.04 17.16-.04 42.13.35 59.8.48 23.98.76 47.97.84 71.97l-.35 118.06c-.1 14.74-1.09 31.16-.74 45.56 2.2 11.81-.38 60.14-3.33 72.57l-.07-3.86c-.9 4.37-4.08 28.33-4.73 29.27l-.7 1.66c-6.12 14.52-8.15 30.38-12.8 44.54-10.4 31.63-42.71 77.84-68.19 99.61-8.7 11.18-33.4 29.85-45.3 38.23-19.09 12.81-53.9 21.49-75.82 27.95-9.11 2.68-19.46 6.22-28.61 8.42-9.16 2.19-19.45 1.35-28.92 4.51-3.63.09-7.26.28-10.88.55-21.22 1.2-40.95 1.83-62.19 1.92-5.17.02-30.01.04-34.37.86-31.2 1.47-65.11-1.2-97.56-.33-14.27.2-27.48-1.68-41.46-1.37-4.32-.72-9.65-.56-14.08-.7-44.01-1.43-87.86.79-131.8 1.1-14.2.1-37.01.3-50.66-2.7-16.49-4.46-23.15-4.89-38.8-14.14-43.83-25.92-77.33-59.61-114.26-93.82-24.09-22.31-54.18-42.69-78.82-64.96-31.31-28.31-63.819-55.31-94.456-84.43-8.629-5.93-28.915-25.93-35.554-34.5a2264.296 2264.296 0 01-132.464-118.89c-8.22-7.89-32.148-29.77-38.423-38.18-24.785-20.62-45.493-44.84-70.828-64.77-9.983-7.86-20.419-17.64-29.495-26.5-21.231-22.68-30.323-26.13-60.606-26.5-22.326-.28-20.906-.25-39.316 13.19-6.124 6.9-8.755 9.89-12.175 18.6-30.503 77.73 49.479 96.95 86.685 140.07 4.574 2.84 26.027 24.07 29.92 28.74a858.888 858.888 0 0156.056 48.33c5.087 4.79 9.579 10.06 14.69 14.86a406.24 406.24 0 0126.808 23.02c5.767 5.44 12.591 13.28 18.777 17.6 23.356 20.91 46.656 41.97 70.82 61.95 10.382 8.58 23.599 21.94 33.896 29.47 14.354 13.9 44.826 35.03 35.495 59.52-1.59 4.18-6 9.81-8.772 13.54-8.271 9.09-37.909 35.23-48.77 44.65-5.973 5.59-11.578 10.88-17.902 16.1-17.224 12.59-41.538 26.43-61.518 33.49-31.787 8.22-68.384 5.78-101.22 6.12-19.685.21-40.886.96-60.349.62l-198.882-.94c-23.977.01-56.694-.99-79.803.36-21.222-.89-55.469-1.72-75.589-7.45-3.172-.73-3.855-1.24-6.626-2.77-7.441-5.63-31.226-12.74-41.489-16.67a254.4 254.4 0 01-32.545-15.04A286.75 286.75 0 0132.85 1780.64c-4.549-11.44-9.788-31.55-13.369-43.91-14.245-37.06-6.607-252.07-6.485-302.51.13-27.54-.153-55.07-.85-82.6-.496-22.94-1.467-60.66 1.655-83.05 1.636-5.22 3.25-10.12 4.484-15.45 4.585-7.2 6.655-14.54 11.015-21.87 4.546-11.6 19.3-27.46 28.193-36.49 4.133-4.19 9.343-8.34 13.2-12.73 40.727-46.43 87.699-86.82 129.55-132.15 12.667-13.72 24.181-28.5 36.697-42.34 13.149-14.22 28.08-27.418 41.921-41.041l82.596-82.435c7.495-7.554 15.636-17.967 23.153-24.777 24.372-22.079 44.581-47.592 68.117-70.361L530.9 713.03c22.805-21.992 80.198-72.621 92.666-98.421 5.645-11.682 10.68-27.905 6.207-40.629-.541-4.675-.972-7.158-2.083-11.729-19.3-43.283-34.27-39.183-74.777-40.481-42.208-10.037-91.917 89.744-120.944 111.22-1.692 1.798-3.278 3.854-5.317 5.025-12.829 19.17-39.697 41.803-56.22 58.702l-91.87 92.992c-24.471 24.365-73.94 76.528-106.613 87.11-16.559 5.363-82.142-57.481-93.8-71.034-6.682-7.766-19.964-18.082-27.23-26.514-2.083-1.641-5.715-5.866-7.67-7.995-.743-1.512-7.538-11.477-9.069-14.056-8.733-14.717-14.56-27.077-19.315-43.48l-.196-.867c-5.23-24.861-3.837-57.922-3.89-83.509-.315-31.773-.47-63.548-.463-95.323.008-73.306-.962-147.005 1.116-220.233.495-17.457-.048-34.806 1.06-52.316a178.102 178.102 0 015.595-35.383c6.574-14.274 9.237-27.645 14.987-41.66 5.787-14.105 17.935-30.604 26.899-43.14 37.37-52.267 68.839-79.932 128.009-104.327l3.9-1.964c35.495-9.688 64.691-21.676 102.54-22.197 24.606.512 54.965-1.85 80.94-1.835l323.613.077c17.725-.21 46.257-1.537 62.268 4.072 40.993 11.096 67.122 34.759 98.947 60.56a2429.638 2429.638 0 0168.239 56.451c14.498 12.445 28.228 27.365 43.214 39.294 26.869 21.389 53.417 42.586 78.817 65.735 9.25 7.903 19.58 14.888 28.74 22.848 15.38 14.01 30.61 28.457 45.59 42.885 8.96 8.621 25.3 17.67 33.03 26.517 22.8 26.109 52.6 42.888 78.36 65.801 12.77 11.364 24.24 24.8 36.98 36.283 24.19 21.562 50.09 41.804 73.32 64.342 12.33 11.966 24.45 23.709 37.99 34.316 6.55 5.268 14.71 8.572 21.17 13.31 5.22 2.062 11.28 4.863 16.75 3.271l.46-1.138c-2.02-1.666-9.37-3.143-12.91-4.745l-2.66-4.416c8.46 4.19 28.4 11.539 37.79 10.828 27.75-2.103 43.04-35.316 43.02-59.279.82-2.959.7-6.765.76-9.927-4.46-17.389-13.94-28.987-25.93-41.635a3338.946 3338.946 0 01-102.03-85.966c-15.6-13.939-31.58-32.679-48.38-45.196-30.03-22.377-55.01-47.056-82.56-72.255-32.5-29.724-74.09-60.368-101.64-94.089-21.12-25.848 54.77-77.952 70.85-93.404 7.04-6.526 34.13-21.343 43.05-26.21 33.07-11.976 107.64-8.132 146.39-8.332l92.6.07c13.89-.017 34.92-.711 48.32.025 20.93-.676 41.9.06 62.76-.456 19.13-.145 37.79.643 56.77.781 14.23.104 30.91-1.004 45.5-1.403zM1832.2 1081.14c7.06 2.86 9.51 4.96 15.23 9.57 28.64 27.51 56.2 56.11 82.64 85.73 7.55 8.55 14.69 16.19 21.96 25.03 9.68 11.77 11.49 32.46 19.73 41.18-9.43-38.62-19.08-48.44-46.47-77.12-5.08-4.06-8.9-10.03-13.9-15.1l-31.76-31.64c-17.01-17.28-24.13-28.61-45.85-40.16-25.57 3.68-38.06 19.33-55.69 36.41l-44.2 43.61c-29.22 28.86-59.04 57.17-86.19 88-22.33 25.35-47.86 48.34-70.51 73.55-7.56 8.42-17.33 16.14-24.98 24.59-21.95 23.41-39.54 54.31-66.93 71.75-2.76 1.75-17.82 7.59-21.78 9.15l-.78 1.3 2.1.6c41.04-8.11 62.59-52.51 88.83-79.77 16.66-17.32 34.07-32.32 49.84-50.85 11.29-13.27 26.96-25.5 38.66-38.63 8.91-9.54 16.58-20.54 25.84-29.86 45.98-44.65 89.7-91.99 137.79-134.37 7.22-6.36 17.16-10.83 26.42-12.97z" transform="translate(10 3.304)"/></svg>
